<svg width="28" height="17" viewBox="0 0 28 17" fill="none" xmlns="http://www.w3.org/2000/svg">
<path d="M23.9155 0.344387C22.0187 2.00461 21.7905 5.20547 21.7905 5.20547C3.8494 1.52391 0.246361 15.0293 0.246361 15.0293C0.246361 15.0293 12.0902 22.5245 22.7716 7.7056C22.7716 7.7056 25.1186 9.90484 27.6435 9.84429C27.6435 9.84429 25.4471 8.16317 24.4464 5.61303C23.446 3.06309 23.9155 0.344387 23.9155 0.344387ZM4.75802 13.1122C4.33748 13.2758 3.84944 13.0331 3.66781 12.5703C3.48619 12.1074 3.67978 11.5998 4.10033 11.4362C4.52087 11.2726 5.00879 11.515 5.19042 11.9778C5.37204 12.4407 5.17857 12.9486 4.75802 13.1122ZM8.81051 15.1835C8.7899 15.2864 8.72283 15.362 8.63778 15.3951C8.5832 15.4163 8.52034 15.4197 8.45706 15.4001C8.2972 15.3516 8.19536 15.175 8.23014 15.0065C8.85677 11.9747 6.58394 10.5788 6.4874 10.5208C6.33992 10.433 6.27864 10.2386 6.35054 10.0866C6.42177 9.93444 6.59864 9.88144 6.74644 9.96837C6.77446 9.98524 9.53848 11.662 8.81051 15.1835Z" fill="#7A7871"/>
</svg>
