<svg width="23" height="21" viewBox="0 0 23 21" fill="none" xmlns="http://www.w3.org/2000/svg">
<path fill-rule="evenodd" clip-rule="evenodd" d="M5.78882 3.4787C5.71449 3.54435 5.64024 3.60994 5.56757 3.67719C5.39955 3.8293 5.23436 3.9838 5.07192 4.1402C3.67241 5.48792 2.42625 7.02943 1.53083 8.75402C0.634234 10.4809 0.101464 12.3894 0.151222 14.2652C0.173699 15.1113 0.317823 16.0097 0.814034 16.764C0.899501 16.894 0.99538 17.0182 1.10115 17.135L2.87585 19.1272L2.89311 19.1466C3.09714 19.3756 3.34081 19.5746 3.62327 19.7285C4.04774 19.9597 4.55117 20.0805 5.08475 20.0356C5.54716 19.9968 5.98204 19.8386 6.36799 19.6299C6.75214 19.4221 7.08588 19.1667 7.38697 18.9092C7.98849 18.3948 8.47637 17.875 8.99449 17.5383C9.91999 16.9369 11.1191 16.7639 12.3276 16.7353C13.5432 16.7065 14.8475 16.8024 16.2169 16.4803C17.8832 16.0884 19.4279 15.087 20.5248 13.7387C21.6203 12.392 22.2463 10.7372 22.3227 9.11022C22.403 7.40064 21.8769 5.74683 20.8462 4.48263C20.787 4.40996 20.7256 4.3392 20.6632 4.26945L18.8713 2.25797C17.8479 1.10531 16.4087 0.336168 14.8118 0.0994131C13.0496 -0.161815 11.1879 0.225847 9.51633 0.994488C8.14858 1.62341 6.90854 2.49523 5.78981 3.47891L5.78882 3.4787ZM6.56746 4.29811C6.64655 4.22825 6.72714 4.16014 6.80746 4.09196C7.77317 3.27586 8.81468 2.57058 9.92649 2.05934C11.4048 1.3796 13.028 1.05337 14.5067 1.27259C15.9182 1.48184 17.2061 2.20127 18.0689 3.25954C18.9317 4.31789 19.3804 5.72758 19.3132 7.16036C19.2492 8.5232 18.7161 9.9241 17.8105 11.0372C16.9063 12.1488 15.6116 12.9844 14.2559 13.3033C13.132 13.5677 11.9163 13.4942 10.6262 13.5247C9.32882 13.5555 7.8769 13.7187 6.6044 14.5456C5.89099 15.0092 5.36629 15.5847 4.84926 16.0269C4.59104 16.2476 4.33377 16.4396 4.07412 16.5801C3.81625 16.7195 3.55108 16.8089 3.30918 16.8292C3.03221 16.8525 2.73954 16.7876 2.48945 16.6513C2.23732 16.514 2.01687 16.3017 1.8485 16.0457C1.50988 15.531 1.37717 14.8385 1.35772 14.1054C1.31424 12.4674 1.78362 10.7588 2.59401 9.19807C3.40552 7.63506 4.55347 6.20701 5.86721 4.94186C6.09588 4.72174 6.32926 4.50668 6.56747 4.29812L6.56746 4.29811ZM7.27939 5.1058C7.05751 5.29871 6.84024 5.50016 6.62591 5.7067C5.39395 6.89308 4.33967 8.21299 3.60812 9.62193C2.87997 11.0243 2.47101 12.5423 2.50846 13.9535C2.52504 14.5788 2.64697 15.075 2.8353 15.3613C2.92671 15.5003 3.03812 15.5982 3.12799 15.6472C3.21187 15.6929 3.30353 15.7045 3.33577 15.7018C3.36779 15.6991 3.47117 15.6753 3.60666 15.602C3.74739 15.5259 3.93181 15.3946 4.14921 15.2086C4.58576 14.8354 5.14542 14.2068 6.04499 13.6222C7.64828 12.5803 9.34142 12.4263 10.7236 12.3936C12.0848 12.3613 13.2159 12.4135 14.1058 12.2042C15.1653 11.955 16.2216 11.2772 16.9423 10.3914C17.6667 9.50092 18.1111 8.34215 18.1633 7.23117C18.2182 6.06232 17.8432 4.88538 17.1403 4.02328C16.4377 3.16151 15.3637 2.56187 14.216 2.39172C13.0075 2.21256 11.6117 2.48018 10.3177 3.07518C9.33828 3.52553 8.39541 4.15916 7.50174 4.91461C7.42715 4.97742 7.35313 5.04127 7.27938 5.10579L7.27939 5.1058ZM12.5539 6.62034C12.9793 6.24461 13.4871 5.99643 13.9658 5.93037C14.4444 5.86431 14.8545 5.98578 15.106 6.26808C15.3575 6.55039 15.4297 6.97039 15.3068 7.43569C15.1838 7.901 14.8758 8.37349 14.4504 8.74923C14.2397 8.93528 14.0066 9.09198 13.7644 9.21037C13.5221 9.32877 13.2754 9.40655 13.0385 9.43926C12.8015 9.47198 12.5788 9.45899 12.3831 9.40104C12.1875 9.3431 12.0226 9.24131 11.8981 9.10153C11.7736 8.96174 11.6918 8.78668 11.6574 8.58634C11.6229 8.38599 11.6365 8.16429 11.6974 7.93389C11.7583 7.70349 11.8653 7.4689 12.0122 7.24352C12.1592 7.01814 12.3432 6.80638 12.5539 6.62034Z" fill="#EE8383"/>
</svg>
